<svg data-v-423bf9ae="" xmlns="http://www.w3.org/2000/svg" viewBox="0 0 459 112" class="iconLeftSlogan"><!----><!----><!----><g data-v-423bf9ae="" id="1d5e3a1f-9f54-4a16-957c-923728492397" fill="#321926" transform="matrix(4.939279760595365,0,0,4.939279760595365,119.25690417126464,-15.262373321042162)"><path d="M1.20 3.66L0.01 5.51L0.24 5.61Q0.65 5.11 1.14 5.11L1.14 5.11L2.32 5.11Q1.44 5.47 1.37 6.22L1.37 6.22L1.37 7.19L0.40 8.57L0.51 8.72L1.37 8.26L1.36 10.58Q1.42 11.07 0.36 12.71L0.36 12.71L4.94 12.70L6.34 10.70L6.00 10.68Q5.56 11.24 5.00 11.23L5.00 11.23L1.69 11.22Q2.21 11.07 2.61 10.10L2.61 10.10L2.62 8.34L3.42 8.34L4.60 7.15L4.49 6.97L2.66 6.97L2.66 5.08L4.87 5.08L6.10 3.78L6.06 3.64L1.20 3.66ZM9.05 6.52Q8.22 7.02 7.46 8.07Q6.71 9.11 6.65 9.85Q6.60 10.59 7.38 11.61Q8.16 12.63 8.58 12.68L8.58 12.68Q9.35 12.04 9.83 11.63L9.83 11.63Q10.01 12.37 10.90 12.73L10.90 12.73L12.25 11.09L12.02 10.94L11.73 11.26Q11.38 11.42 11.16 11.14Q10.94 10.87 10.96 10.47L10.96 10.47L10.96 7.18Q10.99 6.68 11.33 6.51L11.33 6.51L9.05 6.52ZM8.26 7.60L9.92 7.60L9.68 8.07L9.68 8.32L9.68 11.25Q9.08 11.72 8.20 10.45Q7.33 9.17 8.26 7.60L8.26 7.60ZM14.74 6.40Q14.23 6.51 13.78 6.80Q13.33 7.10 13.08 7.39Q12.82 7.68 12.75 8.27Q12.68 8.87 13.07 9.30Q13.46 9.73 14.60 10.02Q15.74 10.31 15.98 10.59Q16.22 10.86 16.15 11.13Q16.08 11.40 15.86 11.50Q15.63 11.59 15.13 11.52Q14.62 11.44 14.15 11.19Q13.69 10.95 13.44 10.66Q13.19 10.36 13.43 9.98L13.43 9.98L13.35 9.87L12.43 10.81Q12.30 11.17 12.67 11.67Q13.04 12.16 13.54 12.42Q14.04 12.67 14.66 12.70Q15.28 12.74 15.68 12.38Q16.08 12.02 16.52 11.32Q16.95 10.63 16.93 10.14Q16.91 9.65 16.55 9.23Q16.19 8.80 14.94 8.51Q13.70 8.22 13.59 7.79Q13.47 7.36 13.98 7.24Q14.49 7.12 15.07 7.38Q15.64 7.64 15.21 8.24L15.21 8.24L15.32 8.26L16.35 7.16Q16.12 6.72 15.68 6.50Q15.24 6.29 14.74 6.40ZM18.96 3.80L17.72 4.94Q18.46 5.07 18.50 6.04L18.50 6.04L19.78 5.02Q19.82 4.12 18.96 3.80L18.96 3.80ZM19.07 6.44L17.38 7.82L17.52 8.07L17.93 7.77Q18.29 7.77 18.21 8.80L18.21 8.80L18.21 11.58Q18.29 12.58 19.06 12.71L19.06 12.71L20.41 11.40L20.25 11.25L19.87 11.59Q19.49 11.57 19.54 10.53L19.54 10.53L19.53 7.64Q19.52 6.57 19.07 6.44L19.07 6.44ZM22.56 3.09Q20.79 4.27 20.85 5.39L20.85 5.39L20.85 11.24Q20.95 12.32 21.97 12.71L21.97 12.71L23.32 11.40L23.21 11.27Q22.52 11.70 22.17 11.05L22.17 11.05L22.17 7.78L22.17 5.11Q22.13 3.76 22.68 3.24L22.68 3.24L22.56 3.09ZM23.83 14.52Q25.44 15.87 27.01 14.68Q28.57 13.48 28.80 11.97L28.80 11.97L28.80 7.62Q28.66 6.62 27.95 6.47L27.95 6.47L26.47 7.93L26.63 8.15L27.06 7.73Q27.47 7.70 27.42 8.70L27.42 8.70L27.42 10.87Q27.06 11.44 26.41 11.38Q25.77 11.32 25.66 10.16L25.66 10.16L25.66 7.64Q25.67 6.64 24.86 6.49L24.86 6.49L23.31 8.03L23.45 8.28L23.87 7.88Q24.28 7.67 24.29 8.60L24.29 8.60L24.29 10.79Q24.40 12.26 25.87 12.76L25.87 12.76Q26.81 12.23 27.48 11.46L27.48 11.46L27.48 12.25Q27.58 14.14 26.63 14.14Q25.68 14.14 24.96 13.25L24.96 13.25L23.83 14.52ZM32.96 3.63L31.77 5.49L32.01 5.58Q32.22 5.11 32.70 5.09L32.70 5.09L34.09 5.09L33.14 6.20L33.13 7.17L32.17 8.56L32.27 8.71Q32.87 8.25 33.13 8.35L33.13 8.35L33.15 10.68Q33.20 11.27 31.93 12.76L31.93 12.76L32.12 12.86Q32.42 12.56 34.33 12.70L34.33 12.70L35.46 11.44L33.48 11.42Q33.95 11.13 34.38 10.64L34.38 10.64L34.38 8.33L35.18 8.33L36.37 7.13L36.26 6.97L34.43 6.96L34.43 5.06L37.11 5.04L38.34 3.75L38.30 3.62L32.96 3.63ZM40.42 6.52Q39.59 7.02 38.83 8.07Q38.08 9.11 38.02 9.85Q37.97 10.59 38.75 11.61Q39.53 12.63 39.95 12.68L39.95 12.68Q40.72 12.04 41.20 11.63L41.20 11.63Q41.38 12.37 42.27 12.73L42.27 12.73L43.62 11.09L43.39 10.94L43.10 11.26Q42.75 11.42 42.53 11.14Q42.31 10.87 42.33 10.47L42.33 10.47L42.33 7.18Q42.36 6.68 42.70 6.51L42.70 6.51L40.42 6.52ZM39.63 7.60L41.29 7.60L41.05 8.07L41.05 8.32L41.05 11.25Q40.45 11.72 39.57 10.45Q38.70 9.17 39.63 7.60L39.63 7.60ZM44.89 6.51L43.61 7.80L43.77 8.00L44.17 7.64Q44.72 7.67 44.67 8.76L44.67 8.76L44.67 11.57Q44.69 12.58 45.48 12.71L45.48 12.71L46.77 11.44L46.63 11.31L46.24 11.64Q45.96 11.53 45.99 10.62L45.99 10.62L45.99 8.05L46.50 7.63Q47.67 7.59 47.69 9.03L47.69 9.03L47.68 11.54Q47.67 12.54 48.45 12.69L48.45 12.69L49.75 11.43L49.61 11.25L49.21 11.62Q48.97 11.59 48.98 10.81L48.98 10.81L48.98 8.11L49.47 7.63Q50.55 7.71 50.64 9.03L50.64 9.03L50.63 11.54Q50.63 12.54 51.41 12.69L51.41 12.69L52.70 11.43L52.53 11.29L52.23 11.57Q51.91 11.54 51.95 10.77L51.95 10.77L51.95 8.40Q51.93 6.71 50.24 6.54L50.24 6.54L48.89 7.73Q48.57 6.62 47.22 6.51L47.22 6.51L45.93 7.73Q45.79 6.64 44.89 6.51L44.89 6.51ZM54.86 6.60Q54.51 6.77 53.74 7.54Q52.98 8.31 52.84 9.52Q52.70 10.73 53.52 11.70Q54.35 12.67 54.96 12.75Q55.58 12.82 56.05 12.39Q56.53 11.96 57.14 10.90Q57.75 9.84 57.64 8.90Q57.53 7.96 56.87 7.30Q56.21 6.65 55.71 6.54Q55.21 6.43 54.86 6.60ZM54.52 7.67Q55.18 7.57 55.89 8.30Q56.59 9.03 56.68 9.85Q56.77 10.67 56.43 11.09Q56.10 11.50 55.43 11.43Q54.76 11.35 54.21 10.31Q53.66 9.27 53.76 8.52Q53.87 7.78 54.52 7.67ZM62.75 12.71L64.03 11.42L63.87 11.22L63.46 11.58Q62.92 11.55 62.97 10.46L62.97 10.46L62.97 7.66Q62.95 6.64 62.16 6.51L62.16 6.51L60.87 7.78L61.00 7.92L61.40 7.58Q61.73 7.68 61.65 8.61L61.65 8.61L61.65 11.17L61.01 11.71Q59.94 11.63 59.95 10.19L59.95 10.19L59.96 7.68Q59.96 6.69 59.19 6.54L59.19 6.54L57.89 7.79L58.03 7.97L58.43 7.60Q58.71 7.64 58.66 8.61L58.66 8.61L58.65 10.66Q58.65 11.69 59.22 12.21Q59.79 12.73 60.46 12.76L60.46 12.76L61.71 11.49Q61.85 12.58 62.75 12.71L62.75 12.71ZM66.60 6.40Q66.09 6.51 65.64 6.80Q65.19 7.10 64.93 7.39Q64.68 7.68 64.61 8.27Q64.54 8.87 64.93 9.30Q65.32 9.73 66.46 10.02Q67.60 10.31 67.84 10.59Q68.08 10.86 68.01 11.13Q67.94 11.40 67.71 11.50Q67.49 11.59 66.99 11.52Q66.48 11.44 66.01 11.19Q65.54 10.95 65.30 10.66Q65.05 10.36 65.29 9.98L65.29 9.98L65.21 9.87L64.29 10.81Q64.16 11.17 64.53 11.67Q64.89 12.16 65.40 12.42Q65.90 12.67 66.52 12.70Q67.14 12.74 67.54 12.38Q67.94 12.02 68.37 11.32Q68.80 10.63 68.78 10.14Q68.76 9.65 68.40 9.23Q68.04 8.80 66.80 8.51Q65.56 8.22 65.44 7.79Q65.33 7.36 65.84 7.24Q66.35 7.12 66.92 7.38Q67.50 7.64 67.07 8.24L67.07 8.24L67.18 8.26L68.21 7.16Q67.98 6.72 67.54 6.50Q67.10 6.29 66.60 6.40Z"></path></g><defs data-v-423bf9ae=""><linearGradient data-v-423bf9ae="" gradientTransform="rotate(25)" id="4d6ffda1-31b3-4158-ba54-29c847b973d2" x1="0%" y1="0%" x2="100%" y2="0%"><stop data-v-423bf9ae="" offset="0%" style="stop-color: rgb(212, 24, 234); stop-opacity: 1;"></stop><stop data-v-423bf9ae="" offset="100%" style="stop-color: rgb(236, 208, 98); stop-opacity: 1;"></stop></linearGradient></defs><g data-v-423bf9ae="" id="7185db73-d3e1-460b-9921-5d4ee648e88f" transform="matrix(1.1111194186740452,0,0,1.1111194186740452,-6.309309212580409,0.421362081091452)" stroke="none" fill="url(#4d6ffda1-31b3-4158-ba54-29c847b973d2)"><path d="M85.604 82.385a3.458 3.458 0 00-4.767-1.082 44.252 44.252 0 01-23.617 6.796c-24.485 0-44.405-19.921-44.405-44.405 0-15.015 7.504-28.902 20.075-37.151a3.452 3.452 0 00.992-4.783 3.454 3.454 0 00-4.784-.993C14.574 10.296 5.905 26.345 5.905 43.695c0 22.882 15.061 42.313 35.789 48.908-5.863 1.671-10.086 4.401-11.305 7.598h49.38c-1.07-2.807-4.47-5.255-9.252-6.944a50.966 50.966 0 0014.004-6.104 3.466 3.466 0 001.083-4.768z"></path><path d="M56.099 4.753c-21.638 0-39.182 17.541-39.182 39.18 0 21.641 17.544 39.181 39.182 39.181S95.28 65.574 95.28 43.933c-.001-21.64-17.544-39.18-39.181-39.18zM72.67 55.98c0 .616-.216 1.577-.48 2.132l-2.86 6.035c-.265.556-.849 1.354-1.299 1.777l-9.315 8.696c-.448.42-.312.766.302.766h1.067c.614 0 1.119.441 1.119.98 0 .541-.505.983-1.119.983h-4.578a1.124 1.124 0 01-1.119-1.122v-11.91c0-.619.503-1.12 1.119-1.12h1.272c.616 0 1.12-.504 1.12-1.119v-1.272c0-.617-.504-1.121-1.12-1.121h-1.272a1.121 1.121 0 01-1.119-1.118v-6.979c0-.614-.505-1.118-1.121-1.118h-1.894c-.613 0-1.531-.291-2.032-.648l-6.024-4.261c-.503-.354-1.171-1.08-1.483-1.612l-2.819-4.785c-.312-.53-1.072-.965-1.688-.965H35.98c-.616 0-1.338-.454-1.605-1.008l-3.266-6.764c-.263-.553-.485-1.51-.485-2.128v-3.856c0-.616-.481-.973-1.07-.792l-1.313.404C33.925 16.11 42.916 10.696 53.19 9.826v4.651c0 .614.411 1.408.915 1.761l2.097 1.475c.504.353 1.419.644 2.035.644h1.659c.617 0 1.12.406 1.12.904 0 .496-.348 1.267-.771 1.716l-2.391 2.52c-.426.445-.268.812.349.813l1.595.004a1.125 1.125 0 011.118 1.122l-.005 4.022a1.12 1.12 0 001.118 1.119h1.8c.615 0 1.12.382 1.12.851 0 .467-.505.849-1.12.849h-5.52c-.614 0-1.519.306-2.008.679l-2.261 1.725c-.489.373-.891 1.182-.891 1.798l.002 6.689c0 .616-.503 1.12-1.119 1.12h-.312a1.123 1.123 0 01-1.119-1.12v-3.851a1.12 1.12 0 00-1.119-1.119h-3.02a1.13 1.13 0 00-1.123 1.119l-.016 3.108c-.004.616.389 1.434.87 1.821l4.456 3.575c.479.387 1.376.702 1.991.703l7.443.004c.614.001 1.566.235 2.111.52l9.483 4.956c.545.284.991 1.021.991 1.639v.339h.002zm-2.875-33.54c-.496.365-1.406.664-2.021.664h-.482a1.123 1.123 0 01-1.119-1.12v-3.639a1.12 1.12 0 00-1.119-1.119h-1.621a1.123 1.123 0 01-1.119-1.119v-5.835a34.1 34.1 0 0114.463 6.388c-.145.48-6.982 5.78-6.982 5.78z"></path></g><!----><g data-v-423bf9ae="" id="4373fe0a-784e-497c-af6b-e7d5ad3a2327" fill="#321926" transform="matrix(Infinity,0,0,Infinity,0,0)"><path d=""></path></g></svg>